<?xml version="1.0" encoding="UTF-8"?>
<svg version="1.1" xmlns="http://www.w3.org/2000/svg" width="512" height="512">
<path d="M0 0 C1.39887955 -0.01475876 1.39887955 -0.01475876 2.82601929 -0.02981567 C57.57088855 -0.4880434 109.12378205 11.10344388 155.04296875 42.23828125 C155.64254395 42.64256348 156.24211914 43.0468457 156.85986328 43.46337891 C165.73960159 49.50045241 173.97969134 56.15715546 182.04296875 63.23828125 C182.90535156 63.98851562 183.76773437 64.73875 184.65625 65.51171875 C195.02233699 74.67090885 204.52811934 84.32296898 213.04296875 95.23828125 C213.831875 96.22183594 214.62078125 97.20539063 215.43359375 98.21875 C240.22782769 129.38092878 256.76018156 166.39116127 265.04296875 205.23828125 C265.26742676 206.28483887 265.49188477 207.33139648 265.72314453 208.40966797 C272.12168314 239.96040516 271.78783799 275.78966266 265.04296875 307.23828125 C264.80690918 308.3454248 264.57084961 309.45256836 264.32763672 310.59326172 C253.53897122 359.34745673 229.18840437 401.28452038 195.04296875 437.23828125 C193.86541016 438.47964844 193.86541016 438.47964844 192.6640625 439.74609375 C187.16144323 445.39636828 181.2046152 450.32669544 175.04296875 455.23828125 C173.96208984 456.15480469 173.96208984 456.15480469 172.859375 457.08984375 C132.76229096 490.68276621 77.76221825 512.16589817 25.25 512.44140625 C24.3494136 512.44842056 23.44882721 512.45543488 22.52095032 512.46266174 C19.63240494 512.48005934 16.74406459 512.48651352 13.85546875 512.48828125 C12.86842957 512.48895599 11.88139038 512.48963074 10.86444092 512.49032593 C-3.60428676 512.47459617 -17.73044345 512.11839209 -31.95703125 509.23828125 C-32.87484375 509.05604004 -33.79265625 508.87379883 -34.73828125 508.68603516 C-41.18983382 507.37446783 -47.57993243 505.87183609 -53.95703125 504.23828125 C-55.07319824 503.95645996 -55.07319824 503.95645996 -56.21191406 503.66894531 C-106.76212465 490.65441198 -154.79709583 458.1841784 -186.95703125 417.23828125 C-187.74851563 416.25214844 -188.54 415.26601563 -189.35546875 414.25 C-216.54725824 379.80992593 -234.27227437 338.55993772 -240.95703125 295.23828125 C-241.13508301 294.11147949 -241.31313477 292.98467773 -241.49658203 291.82373047 C-243.15193166 280.21557269 -243.35468569 268.70122663 -243.33203125 256.98828125 C-243.33181976 255.97759583 -243.33160828 254.9669104 -243.33139038 253.92559814 C-243.29690024 237.36869479 -242.35606601 221.48766359 -238.95703125 205.23828125 C-238.76979492 204.33126465 -238.58255859 203.42424805 -238.38964844 202.48974609 C-234.23023654 183.02527884 -227.65539996 164.12663439 -218.95703125 146.23828125 C-218.30541016 144.89612549 -218.30541016 144.89612549 -217.640625 143.52685547 C-201.19518064 110.0461754 -177.43261113 79.31137861 -147.95703125 56.23828125 C-146.9721875 55.44808594 -145.98734375 54.65789063 -144.97265625 53.84375 C-104.71789546 21.82407197 -51.83223408 0.45134053 0 0 Z M-83.09472656 59.27539062 C-85.20999947 60.36907657 -87.34474364 61.41949518 -89.48046875 62.47265625 C-117.65459439 76.58830483 -143.79339605 98.18092428 -162.95703125 123.23828125 C-163.45106445 123.88297363 -163.94509766 124.52766602 -164.45410156 125.19189453 C-172.68039674 136.02426801 -179.75827438 147.13483112 -185.95703125 159.23828125 C-186.34342773 159.98126465 -186.72982422 160.72424805 -187.12792969 161.48974609 C-202.97068921 192.22576195 -210.41321424 225.91557917 -210.26953125 260.36328125 C-210.26770844 261.2696936 -210.26588562 262.17610596 -210.26400757 263.10998535 C-210.2191022 276.36745537 -209.79029007 289.24200794 -206.95703125 302.23828125 C-206.78010742 303.09147949 -206.60318359 303.94467773 -206.42089844 304.82373047 C-195.8459998 355.16864947 -168.64282987 401.34640353 -127.95703125 433.23828125 C-126.98378906 434.02847656 -126.01054688 434.81867188 -125.0078125 435.6328125 C-107.37290343 449.68321057 -74.30593244 473.23828125 -50.95703125 473.23828125 C-50.95703125 458.38828125 -50.95703125 443.53828125 -50.95703125 428.23828125 C-56.89703125 428.89828125 -62.83703125 429.55828125 -68.95703125 430.23828125 C-89.55182018 430.98446925 -107.86995246 428.22783544 -124.08203125 414.4296875 C-131.55842582 407.39224792 -135.63566133 399.01119239 -139.83203125 389.80078125 C-143.11582945 382.60717387 -146.97919245 376.41428693 -151.95703125 370.23828125 C-153.07078125 368.69140625 -153.07078125 368.69140625 -154.20703125 367.11328125 C-159.16854451 361.92624466 -165.19608315 357.91053385 -171.03515625 353.76171875 C-173.90927151 351.5991563 -174.89583063 350.4699693 -175.83203125 346.92578125 C-175.87328125 346.03890625 -175.91453125 345.15203125 -175.95703125 344.23828125 C-170.55367233 340.63604197 -164.16752176 340.81820636 -157.89453125 341.92578125 C-142.26740364 345.61280667 -131.56474558 354.96448982 -123.01953125 368.23828125 C-115.41023652 379.86646563 -104.72342042 389.26159754 -90.96484375 392.80078125 C-78.2307658 394.65301077 -66.06576528 393.55270664 -53.95703125 389.23828125 C-53.21066406 389.03976562 -52.46429688 388.84125 -51.6953125 388.63671875 C-48.67467172 386.20663021 -48.40298459 382.36534274 -47.58203125 378.73828125 C-45.74060529 371.35062955 -43.27929062 365.55055446 -38.95703125 359.23828125 C-38.61027344 358.51382812 -38.26351562 357.789375 -37.90625 357.04296875 C-36.95703125 355.23828125 -36.95703125 355.23828125 -34.95703125 354.23828125 C-36.30667969 354.00044922 -36.30667969 354.00044922 -37.68359375 353.7578125 C-72.48217794 347.44664643 -107.68138564 338.85866074 -129.140625 308.109375 C-148.08661924 278.34733112 -154.79373181 238.90300813 -147.95703125 204.23828125 C-144.69533696 189.56739599 -138.97615102 176.61109871 -129.75390625 164.640625 C-129.1609375 163.84785156 -128.56796875 163.05507812 -127.95703125 162.23828125 C-127.35890625 161.44035156 -126.76078125 160.64242187 -126.14453125 159.8203125 C-124.54830574 156.34957216 -125.17127161 154.6222176 -126.20703125 150.98828125 C-127.59266927 145.68360694 -128.65505924 140.71038004 -128.95703125 135.23828125 C-129.00988281 134.32304687 -129.06273437 133.4078125 -129.1171875 132.46484375 C-129.50020307 119.24248006 -127.36540247 105.77823885 -122.7265625 93.390625 C-121.84481087 91.30536827 -121.84481087 91.30536827 -121.95703125 89.23828125 C-97.33983749 89.93664136 -76.58999189 99.46549903 -55.85375977 112.12841797 C-55.22783936 112.49467285 -54.60191895 112.86092773 -53.95703125 113.23828125 C-53.32933838 113.63321777 -52.70164551 114.0281543 -52.05493164 114.43505859 C-49.21180813 115.52360466 -47.47264226 115.05346553 -44.51171875 114.41015625 C-43.43277344 114.18714844 -42.35382813 113.96414062 -41.2421875 113.734375 C-40.11683594 113.48816406 -38.99148437 113.24195312 -37.83203125 112.98828125 C-20.10454644 109.16972556 -2.8739106 107.85641198 15.23046875 107.92578125 C16.17085999 107.92693939 17.11125122 107.92809753 18.08013916 107.92929077 C35.87893021 107.9725789 53.15871209 109.0185447 70.421875 113.6875 C74.83387816 114.61461244 77.82521147 114.86209152 81.91015625 112.76953125 C82.90273438 112.09921875 83.8953125 111.42890625 84.91796875 110.73828125 C104.46763281 98.05019383 124.73837658 90.40504608 148.04296875 89.23828125 C155.57260744 111.4278983 158.56750163 134.6646826 151.04296875 157.23828125 C152.44085745 159.35244456 152.44085745 159.35244456 154.48046875 161.55078125 C165.6988472 175.11855833 172.65083887 191.77883976 175.04296875 209.23828125 C175.15253906 209.98335937 175.26210938 210.7284375 175.375 211.49609375 C179.49608472 244.79445827 172.94600638 283.619669 152.10546875 310.55078125 C150.77092644 312.13007553 149.4169669 313.69319138 148.04296875 315.23828125 C147.39070313 315.98464844 146.7384375 316.73101562 146.06640625 317.5 C125.57816711 339.48457121 95.56524127 346.63409615 67.04296875 351.23828125 C65.84414063 351.43808594 64.6453125 351.63789063 63.41015625 351.84375 C62.62898438 351.97394531 61.8478125 352.10414063 61.04296875 352.23828125 C61.40648437 352.66496094 61.77 353.09164063 62.14453125 353.53125 C74.98331219 369.49742629 76.49030319 387.1113619 76.5546875 406.7578125 C76.57156562 408.71222539 76.58971999 410.66662763 76.60908508 412.62101746 C76.65625124 417.72210358 76.68627537 422.82314653 76.71252441 427.92437744 C76.74249987 433.1469373 76.78897112 438.36934881 76.83398438 443.59179688 C76.91963688 453.80721352 76.98714988 464.02266102 77.04296875 474.23828125 C78.48281822 473.92711107 79.92214683 473.61353017 81.36125183 473.29893494 C82.16283313 473.12456878 82.96441442 472.95020262 83.79028606 472.77055264 C88.50893753 471.65561391 92.89938488 469.67881871 97.35546875 467.80078125 C98.4029126 467.35976074 99.45035645 466.91874023 100.52954102 466.46435547 C117.29104682 459.2581898 132.4849753 450.20404255 147.04296875 439.23828125 C147.98527344 438.52929688 148.92757813 437.8203125 149.8984375 437.08984375 C156.61791054 431.85527811 162.87249781 426.10060906 169.04296875 420.23828125 C169.57857422 419.73135742 170.11417969 419.22443359 170.66601562 418.70214844 C208.20429835 382.92695985 234.68861848 329.10603717 236.2199707 276.86547852 C236.24603261 275.34530101 236.26623507 273.82501425 236.28125 272.3046875 C236.29600876 271.06427956 236.29600876 271.06427956 236.31106567 269.79881287 C236.76736323 221.45304077 226.1481501 173.93798669 197.04296875 134.23828125 C196.36105469 133.28566406 195.67914063 132.33304687 194.9765625 131.3515625 C182.43317665 114.18574823 167.97788241 98.16289736 151.04296875 85.23828125 C150.49592285 84.81482422 149.94887695 84.39136719 149.38525391 83.95507812 C139.74917183 76.52420207 129.70889211 70.0902266 119.04296875 64.23828125 C118.39247559 63.88137207 117.74198242 63.52446289 117.07177734 63.15673828 C56.68650376 30.51895015 -21.6627072 27.32377942 -83.09472656 59.27539062 Z " fill="#C9CACC" transform="translate(242.95703125,-0.23828125)"/>
</svg>
