<?xml version="1.0" standalone="no"?>
<!DOCTYPE svg PUBLIC "-//W3C//DTD SVG 20010904//EN"
 "http://www.w3.org/TR/2001/REC-SVG-20010904/DTD/svg10.dtd">
<svg version="1.0" xmlns="http://www.w3.org/2000/svg"
 width="16.000000pt" height="16.000000pt" viewBox="0 0 16.000000 16.000000"
 preserveAspectRatio="xMidYMid meet">

<g transform="translate(0.000000,16.000000) scale(0.100000,-0.100000)"
fill="#000000" stroke="none">
<path d="M25 135 c-30 -29 -33 -74 -6 -106 24 -29 91 -33 118 -6 27 27 23 94
-6 118 -32 27 -77 24 -106 -6z m83 -27 c9 -9 9 -15 0 -26 -9 -10 -8 -16 2 -22
8 -5 11 -12 7 -17 -4 -4 -17 -2 -27 5 -12 7 -20 8 -20 2 0 -5 -7 -10 -15 -10
-9 0 -15 9 -15 25 0 20 5 25 28 26 l27 2 -27 4 c-16 2 -28 9 -28 14 0 13 54
11 68 -3z"/>
</g>
</svg>
