<?xml version="1.0" encoding="UTF-8"?>
<svg version="1.1" xmlns="http://www.w3.org/2000/svg" width="512" height="512">
<path d="M0 0 C11.04180629 9.59759938 18.94955146 20.56165211 25.78125 33.3671875 C26.18085938 34.08519531 26.58046875 34.80320313 26.9921875 35.54296875 C36.99766035 54.23319204 40.36066193 76.57147004 42.78125 97.3671875 C42.87019909 98.0752633 42.95914818 98.7833391 43.05079269 99.51287174 C44.14048327 109.46736814 43.93730474 119.4727136 43.94238281 129.47241211 C43.94701751 131.60544927 43.95204303 133.7384856 43.95742798 135.871521 C43.97048012 141.63748292 43.97698131 147.40343324 43.98143864 153.16940761 C43.98437739 156.77246616 43.98848341 160.37552159 43.99294281 163.97857857 C44.00659077 175.25527682 44.016274 186.53196787 44.0201447 197.8086738 C44.02463701 210.82285583 44.0422504 223.83693343 44.0711453 236.8510837 C44.09272633 246.92007664 44.10284685 256.9890401 44.10418582 267.05805594 C44.10523522 273.06973488 44.11117342 279.0813153 44.12900543 285.09296989 C44.14542702 290.73765617 44.14767052 296.38216914 44.13886642 302.02687073 C44.13809322 304.10056585 44.14247586 306.17427009 44.15232468 308.24794197 C44.16495814 311.07284728 44.15921476 313.89713043 44.14874268 316.72203064 C44.16082728 317.95980229 44.16082728 317.95980229 44.17315602 319.22257942 C44.14458942 322.50446709 44.01869686 324.92662958 42.44578171 327.8450098 C39.66266541 330.39010854 36.99160612 330.49389807 33.39199829 330.50762939 C32.49478561 330.51333954 31.59757294 330.51904968 30.673172 330.52493286 C29.69128403 330.52605072 28.70939606 330.52716858 27.69775391 330.52832031 C26.14369591 330.53576767 26.14369591 330.53576767 24.5582428 330.54336548 C21.12475932 330.55799218 17.69132203 330.56478964 14.2578125 330.5703125 C11.87511188 330.57606311 9.49241128 330.58182085 7.10971069 330.58758545 C2.1112242 330.59809659 -2.8872462 330.60393866 -7.88574219 330.60742188 C-14.29402996 330.61290973 -20.70210558 330.6369437 -27.11032677 330.66539383 C-32.0327924 330.68400614 -36.95520677 330.68922504 -41.87770462 330.69075775 C-44.24042548 330.6937875 -46.60314536 330.70182679 -48.96583176 330.71494293 C-52.269541 330.7319752 -55.57272965 330.73012996 -58.87646484 330.72363281 C-59.85430435 330.7328476 -60.83214386 330.74206238 -61.83961487 330.7515564 C-70.5375422 330.69790412 -70.5375422 330.69790412 -74.21875 327.3671875 C-76.36970069 323.21753937 -76.50293743 319.33906747 -76.47703552 314.76329041 C-76.48071123 314.00542175 -76.48438693 313.2475531 -76.48817402 312.46671873 C-76.49814208 309.93078734 -76.49400538 307.39507575 -76.48999023 304.85913086 C-76.49437846 303.03864815 -76.49968097 301.21816744 -76.50582886 299.39768982 C-76.51733044 295.47611705 -76.52278847 291.55459832 -76.52371025 287.63300896 C-76.52565461 281.41435234 -76.54373265 275.19580666 -76.56446838 268.97718811 C-76.61362662 253.51772105 -76.64443056 238.05822358 -76.66577148 222.59869385 C-76.68235836 210.60701042 -76.70538149 198.61542164 -76.74879223 186.62380129 C-76.77039626 180.46168061 -76.77864241 174.29974044 -76.77639949 168.13758457 C-76.7780857 164.27211964 -76.79225338 160.40676887 -76.80961227 156.5413456 C-76.81513569 154.77110004 -76.81576894 153.00083003 -76.81067467 151.23058319 C-76.76986691 135.364827 -77.2206147 117.91093127 -84.21875 103.3671875 C-84.63898438 102.48675781 -85.05921875 101.60632813 -85.4921875 100.69921875 C-90.14342285 92.00063773 -97.13274717 87.68707315 -106.21875 84.3671875 C-119.91779558 80.79243656 -136.5903344 82.83686429 -149.09375 89.0546875 C-159.64261621 95.33195186 -164.61862915 104.96921652 -168.1875 116.49609375 C-171.91826422 131.40049682 -172.51431853 146.55547811 -172.47412109 161.83300781 C-172.47687958 163.61063293 -172.48056462 165.38825681 -172.48509216 167.1658783 C-172.49312425 170.95468062 -172.49539325 174.74342423 -172.49314499 178.53223419 C-172.49028558 184.52509793 -172.50475633 190.51784636 -172.52212524 196.51068115 C-172.56891809 213.53786551 -172.5931186 230.5650392 -172.59960938 247.59228516 C-172.60335698 257.02597889 -172.62134779 266.45953929 -172.65470374 275.89317584 C-172.67491065 281.85046206 -172.67729359 287.80740438 -172.66642356 293.7647109 C-172.66382012 297.46121694 -172.6777996 301.15752143 -172.69650459 304.8539753 C-172.70183335 306.56764301 -172.70031812 308.28134768 -172.69146919 309.99500084 C-172.68036611 312.33343401 -172.69375569 314.67050062 -172.71322632 317.0088501 C-172.71431585 318.31691746 -172.71540539 319.62498482 -172.71652794 320.97269058 C-173.30097444 324.92293892 -174.42975871 326.56594042 -177.21875 329.3671875 C-179.55718975 330.53640737 -180.92699187 330.49536901 -183.53244019 330.50090027 C-184.43813751 330.50516525 -185.34383484 330.50943024 -186.27697754 330.51382446 C-187.27338257 330.51337128 -188.2697876 330.51291809 -189.29638672 330.51245117 C-190.34363922 330.51580978 -191.39089172 330.5191684 -192.46987915 330.52262878 C-195.9460772 330.53215975 -199.42222718 330.534083 -202.8984375 330.53515625 C-205.30738343 330.53836745 -207.71632915 330.54173141 -210.12527466 330.54524231 C-215.18101453 330.55123903 -220.23673729 330.55308166 -225.29248047 330.55249023 C-231.77819697 330.55238861 -238.26380401 330.56603917 -244.74949455 330.58326244 C-249.72682196 330.59436878 -254.7041228 330.59640986 -259.68146133 330.59588051 C-262.0729116 330.59706275 -264.46436251 330.60149815 -266.85580063 330.60921288 C-270.19805361 330.61898467 -273.54006758 330.6161457 -276.88232422 330.61010742 C-277.87468079 330.61572693 -278.86703735 330.62134644 -279.88946533 330.62713623 C-280.80080231 330.62294174 -281.71213928 330.61874725 -282.65109253 330.61442566 C-283.83630902 330.61524281 -283.83630902 330.61524281 -285.04546928 330.61607647 C-287.54532835 330.32978702 -289.09978838 329.71727992 -291.21875 328.3671875 C-293.49712651 324.94962274 -293.47049228 323.74535198 -293.47601891 319.730546 C-293.4824678 318.54965194 -293.48891669 317.36875789 -293.495561 316.15207916 C-293.4924638 314.84840564 -293.4893666 313.54473212 -293.48617554 312.20155334 C-293.48991013 310.80762992 -293.49451089 309.41370858 -293.49990618 308.01979059 C-293.51217507 304.18053525 -293.51187117 300.34136679 -293.50951743 296.5020963 C-293.50911025 292.3650058 -293.52013891 288.22794353 -293.52963257 284.09086609 C-293.54626442 275.98254711 -293.55174308 267.87425721 -293.55285732 259.76592261 C-293.55380669 253.17754137 -293.55791137 246.58916975 -293.56425858 240.00079155 C-293.5818763 221.33468917 -293.59109652 202.66860981 -293.58959763 184.00249905 C-293.58951772 182.99564165 -293.5894378 181.98878425 -293.58935547 180.95141602 C-293.58927371 179.94333397 -293.58919195 178.93525192 -293.58910771 177.89662194 C-293.58829447 161.55209647 -293.60744023 145.20766308 -293.6356322 128.86316425 C-293.66432979 112.09365935 -293.67817425 95.32419941 -293.67644465 78.55466932 C-293.6757797 69.13461796 -293.68131769 59.71466316 -293.70280075 50.29463387 C-293.72097142 42.27546767 -293.72539384 34.2564418 -293.7117819 26.23726398 C-293.70523157 22.14358569 -293.70520897 18.0501769 -293.7224884 13.9565239 C-293.73813358 10.21162929 -293.73544421 6.46721981 -293.71792014 2.72233766 C-293.71336382 0.72022391 -293.72857437 -1.28190437 -293.74439943 -3.28396076 C-293.73520184 -4.46746256 -293.72600425 -5.65096436 -293.71652794 -6.87032986 C-293.71696267 -7.89394853 -293.71739741 -8.9175672 -293.71784532 -9.97220463 C-293.08224009 -13.36052791 -291.89295116 -14.52168469 -289.21875 -16.6328125 C-286.47292822 -17.54808643 -284.84746333 -17.76193051 -282.01931763 -17.77325439 C-281.16417572 -17.77896454 -280.30903381 -17.78467468 -279.42797852 -17.79055786 C-278.49284424 -17.79167572 -277.55770996 -17.79279358 -276.59423828 -17.79394531 C-275.60696747 -17.79891022 -274.61969666 -17.80387512 -273.60250854 -17.80899048 C-270.33135282 -17.82361453 -267.06024557 -17.83041421 -263.7890625 -17.8359375 C-261.51846312 -17.84168835 -259.24786375 -17.84744609 -256.9772644 -17.85321045 C-252.21417006 -17.86372085 -247.4510926 -17.8695634 -242.68798828 -17.87304688 C-236.58236669 -17.87853443 -230.47696779 -17.90256806 -224.37141609 -17.93101883 C-219.68056585 -17.94963394 -214.9897694 -17.95485019 -210.29888535 -17.95638275 C-208.04780738 -17.95941189 -205.79673041 -17.96744916 -203.54568863 -17.98056793 C-200.39763641 -17.99760602 -197.25013029 -17.99575358 -194.10205078 -17.98925781 C-192.70542206 -18.00307999 -192.70542206 -18.00307999 -191.28057861 -18.0171814 C-186.44254009 -17.98587987 -183.13212454 -17.81467308 -179.21875 -14.6328125 C-177.25983368 -11.75577032 -176.93689596 -9.30460739 -176.8046875 -5.8671875 C-176.76601563 -4.97773438 -176.72734375 -4.08828125 -176.6875 -3.171875 C-176.6565625 -2.25148437 -176.625625 -1.33109375 -176.59375 -0.3828125 C-176.55507813 0.55304688 -176.51640625 1.48890625 -176.4765625 2.453125 C-176.38250156 4.75761804 -176.29685601 7.06210763 -176.21875 9.3671875 C-175.67089844 8.83351562 -175.12304688 8.29984375 -174.55859375 7.75 C-130.41113439 -33.74143335 -47.71663087 -39.87080342 0 0 Z " fill="#000000" transform="translate(468.21875,181.6328125)"/>
<path d="M0 0 C1.33319778 -0.00856522 1.33319778 -0.00856522 2.69332886 -0.01730347 C3.66586609 -0.01842133 4.63840332 -0.01953918 5.64041138 -0.02069092 C7.17983902 -0.02813828 7.17983902 -0.02813828 8.75036621 -0.03573608 C12.15138413 -0.05036228 15.55235543 -0.05716016 18.95339966 -0.06268311 C21.31368003 -0.06843376 23.67396038 -0.0741915 26.03424072 -0.07995605 C30.98564878 -0.09046706 35.9370406 -0.09630922 40.88845825 -0.09979248 C47.23621275 -0.10528028 53.58375308 -0.12931418 59.93144035 -0.15776443 C64.80758291 -0.17637729 69.68367371 -0.18159568 74.55984879 -0.18312836 C76.90024106 -0.18615798 79.24063236 -0.19419689 81.58098984 -0.20731354 C84.85356762 -0.22434693 88.12561989 -0.2225003 91.39822388 -0.21600342 C92.36671265 -0.2252182 93.33520142 -0.23443298 94.33303833 -0.243927 C102.82236492 -0.19106884 102.82236492 -0.19106884 106.64871216 3.14044189 C108.71954037 6.41339001 108.90065053 9.01609644 108.90598106 12.8504858 C108.91242996 14.02230402 108.91887885 15.19412224 108.92552316 16.4014501 C108.92087736 18.33405867 108.92087736 18.33405867 108.9161377 20.30570984 C108.91987349 21.68740925 108.92447472 23.06910655 108.92986834 24.45080048 C108.94212238 28.25166142 108.94183506 32.0524345 108.93947959 35.8533107 C108.93907203 39.95086602 108.95010462 44.04839293 108.95959473 48.14593506 C108.97621832 56.17490945 108.98170487 64.20385448 108.98281948 72.23284464 C108.98376921 78.75731087 108.98787572 85.28176739 108.99422073 91.80623055 C109.011836 110.29534658 109.02105903 128.78443937 109.01955979 147.27356385 C109.01947987 148.27063214 109.01939996 149.26770043 109.01931763 150.29498291 C109.01923587 151.2932653 109.0191541 152.29154769 109.01906987 153.32008106 C109.01825664 169.50543788 109.03740276 185.69070171 109.06559436 201.87603163 C109.09429829 218.48624133 109.10813607 235.09640564 109.10640681 251.70664078 C109.1057421 261.03560662 109.11126998 270.36447496 109.13276291 279.6934185 C109.15094186 287.63494494 109.15534911 295.57632966 109.14174406 303.51786786 C109.13519802 307.57117266 109.13515582 311.62420532 109.15245056 315.67748451 C109.16811444 319.38661814 109.16538693 323.09526233 109.1478823 326.80438352 C109.14333398 328.78483356 109.15852195 330.76529837 109.17436159 332.74569029 C109.1605652 334.50732923 109.1605652 334.50732923 109.1464901 336.30455685 C109.14692483 337.31814044 109.14735957 338.33172403 109.14780748 339.37602228 C108.5128149 342.89315791 107.08906848 344.57903059 104.64871216 347.14044189 C102.31363423 348.30798086 100.94334877 348.27106402 98.3417511 348.28088379 C97.43749893 348.28659393 96.53324677 348.29230408 95.60159302 348.29818726 C94.60675903 348.29930511 93.61192505 348.30042297 92.58694458 348.30157471 C91.54129837 348.30653961 90.49565216 348.31150452 89.4183197 348.31661987 C85.94693349 348.33126707 82.47559299 348.33804791 79.00418091 348.34356689 C76.5976308 348.34931642 74.19108071 348.35507417 71.78453064 348.36083984 C66.73298936 348.37135724 61.68146403 348.37719501 56.62991333 348.38067627 C50.1532165 348.38616129 43.67672988 348.4101866 37.20009899 348.43864822 C32.22701907 348.45726153 27.25398989 348.46247952 22.28087807 348.46401215 C19.89303755 348.46704235 17.50519801 348.4750832 15.11739159 348.48819733 C11.77765239 348.50522948 8.4384282 348.50338421 5.09866333 348.49688721 C4.10990204 348.50610199 3.12114075 348.51531677 2.10241699 348.52481079 C-2.83105188 348.49470792 -6.39710478 348.45956292 -10.35128784 345.14044189 C-11.66486071 342.51329616 -11.48036655 340.57050947 -11.48550892 337.62684822 C-11.48996676 336.44794521 -11.49442461 335.26904221 -11.49901754 334.05441487 C-11.49883317 332.74782851 -11.49864881 331.44124214 -11.49845886 330.09506226 C-11.50175659 328.70200335 -11.50548197 327.30894539 -11.50960034 325.91588867 C-11.51963857 322.07439643 -11.52334005 318.23291981 -11.52598965 314.39141631 C-11.52988724 310.25363355 -11.53946586 306.11586322 -11.54820251 301.97808838 C-11.56798101 291.97956174 -11.57803428 281.98103406 -11.5869303 271.98249274 C-11.5913104 267.27796888 -11.59667788 262.57344615 -11.60191917 257.86892319 C-11.61893183 242.23736619 -11.63342751 226.60580991 -11.64066792 210.97424507 C-11.64257791 206.91619999 -11.64449823 202.85815492 -11.64645386 198.80010986 C-11.6469376 197.79146232 -11.64742134 196.78281477 -11.64791974 195.74360214 C-11.65622569 179.39255117 -11.68157197 163.04157322 -11.71403453 146.69055416 C-11.74706635 129.91656597 -11.76511311 113.14261495 -11.76831216 96.36859405 C-11.77048071 86.94516782 -11.77927985 77.52184813 -11.80477333 68.09845352 C-11.82642733 60.07561071 -11.83455695 52.0529003 -11.82480655 44.03003158 C-11.82024655 39.93432971 -11.82224604 35.83890131 -11.84156799 31.74323654 C-11.85909193 27.99646052 -11.85829067 24.25015964 -11.8426707 20.50337933 C-11.8391415 18.50021693 -11.85540088 16.49705016 -11.87227517 14.49395573 C-11.86369428 13.30983723 -11.85511339 12.12571873 -11.84627247 10.90571785 C-11.84724928 9.8815571 -11.84822609 8.85739636 -11.84923249 7.80220044 C-11.21508945 4.41239462 -10.02655083 3.25202041 -7.35128784 1.14044189 C-4.56384873 0.21129552 -2.87956855 0.01108948 0 0 Z " fill="#000000" transform="translate(19.351287841796875,163.85955810546875)"/>
<path d="M0 0 C15.00365817 11.81704051 24.36910589 27.75882999 26.77734375 46.74609375 C28.35639957 64.41953691 24.65872845 82.95207133 13.23046875 97.00390625 C0.14918409 112.15953904 -15.88284723 121.57441508 -35.97265625 123.55859375 C-54.49324975 124.48664092 -70.98079336 119.56636042 -85.22265625 107.74609375 C-85.86460938 107.26527344 -86.5065625 106.78445312 -87.16796875 106.2890625 C-99.1026679 97.00354545 -106.61892654 81.42675421 -109.22265625 66.74609375 C-110.60270276 45.43273905 -107.64418703 26.67167529 -93.359375 10.046875 C-68.54290804 -16.67506109 -30.05467741 -21.02005923 0 0 Z " fill="#000000" transform="translate(109.22265625,13.25390625)"/>
</svg>
