<?xml version="1.0" encoding="UTF-8"?>
<svg version="1.1" xmlns="http://www.w3.org/2000/svg" width="512" height="512">
<path d="M0 0 C0.98395752 0.00021149 1.96791504 0.00042297 2.98168945 0.00064087 C19.00458015 0.0348903 34.34429925 1.04675922 50.0625 4.375 C51.45033691 4.65585449 51.45033691 4.65585449 52.86621094 4.94238281 C71.9669883 8.86831469 90.45006928 15.01336155 108.0625 23.375 C108.70993164 23.68018555 109.35736328 23.98537109 110.02441406 24.29980469 C126.43439213 32.0967662 141.69641559 41.25311238 156.0625 52.375 C156.68415039 52.84711914 157.30580078 53.31923828 157.94628906 53.80566406 C173.95412176 66.00640585 188.9041111 80.30413564 201.0625 96.375 C201.82949219 97.32503906 202.59648437 98.27507812 203.38671875 99.25390625 C228.95210989 131.32101382 245.4660214 170.21377207 253.0625 210.375 C253.22621094 211.1896875 253.38992188 212.004375 253.55859375 212.84375 C258.9772574 240.78793277 258.54128986 273.48594655 253.0625 301.375 C252.90152832 302.27057617 252.74055664 303.16615234 252.57470703 304.08886719 C243.60448335 353.67067991 219.63476424 398.07572163 185.0625 434.375 C184.20712646 435.273396 184.20712646 435.273396 183.33447266 436.18994141 C175.29551957 444.57060947 167.02461702 452.21218991 157.70605469 459.14599609 C156.11554763 460.33533247 154.54561278 461.55202768 152.9765625 462.76953125 C146.53231615 467.73379976 139.90659354 472.20364531 132.88330078 476.30957031 C131.63575665 477.03956261 130.39210798 477.77624153 129.15185547 478.51855469 C109.81054393 490.05249432 88.87885531 498.79766098 67.0625 504.375 C65.76481689 504.71072021 65.76481689 504.71072021 64.44091797 505.05322266 C58.01732889 506.68618071 51.56600986 508.09916405 45.0625 509.375 C43.8237915 509.62491699 43.8237915 509.62491699 42.56005859 509.87988281 C14.98132027 515.17947725 -17.43100057 514.94357122 -44.9375 509.375 C-45.8553125 509.19275879 -46.773125 509.01051758 -47.71875 508.82275391 C-54.1701164 507.51122443 -60.56179877 506.01364963 -66.9375 504.375 C-67.69224609 504.18180176 -68.44699219 503.98860352 -69.22460938 503.78955078 C-86.96006799 499.14778625 -103.77755876 491.96715001 -119.9375 483.375 C-120.65115723 483.00149414 -121.36481445 482.62798828 -122.10009766 482.24316406 C-133.69939339 476.14788768 -144.49983015 469.29768613 -154.9375 461.375 C-155.61603027 460.86018066 -156.29456055 460.34536133 -156.99365234 459.81494141 C-174.00259081 446.7289604 -190.13160491 431.45173835 -202.73242188 414.02441406 C-203.98396739 412.31139917 -205.2758757 410.63566422 -206.578125 408.9609375 C-236.7424919 369.7191302 -255.87976251 318.30248203 -256.140625 268.58203125 C-256.14763931 267.68149017 -256.15465363 266.7809491 -256.16188049 265.8531189 C-256.17927902 262.96452774 -256.1857324 260.07614163 -256.1875 257.1875 C-256.18817474 256.20012848 -256.18884949 255.21275696 -256.18954468 254.19546509 C-256.17379657 239.70411736 -255.72091075 225.63479749 -252.9375 211.375 C-252.69604248 210.02946045 -252.69604248 210.02946045 -252.44970703 208.65673828 C-241.62712011 148.84661096 -207.56935543 91.33254171 -158.9375 54.375 C-158.39722168 53.95831055 -157.85694336 53.54162109 -157.30029297 53.11230469 C-147.3052884 45.4290127 -136.84540964 38.68657032 -125.9375 32.375 C-125.26025879 31.98070801 -124.58301758 31.58641602 -123.88525391 31.18017578 C-100.9666244 17.99788827 -75.39177437 9.39239082 -49.5625 4.0625 C-48.85182373 3.91506348 -48.14114746 3.76762695 -47.40893555 3.61572266 C-31.69696531 0.61710746 -15.95290113 -0.03184514 0 0 Z " fill="#F1F1F1" transform="translate(255.9375,-0.37499999999999994)"/>
<path d="M0 0 C0.86657227 -0.01015137 1.73314453 -0.02030273 2.62597656 -0.03076172 C14.03890289 0.12299877 25.23317495 4.15865551 33.84375 11.8125 C47.02239937 26.39313335 48.67536762 45.14030555 48.625 63.9375 C48.64111328 65.14019531 48.65722656 66.34289062 48.67382812 67.58203125 C48.68462646 87.68852417 42.74697182 103.00348454 30.3125 118.4375 C31.42109375 118.99179687 32.5296875 119.54609375 33.671875 120.1171875 C39.21875 122.890625 44.765625 125.6640625 50.3125 128.4375 C49.70894592 132.28775879 48.54477397 135.29851159 46.75 138.75 C46.06744141 140.07451172 46.06744141 140.07451172 45.37109375 141.42578125 C45.02175781 142.08964844 44.67242187 142.75351562 44.3125 143.4375 C40.64576149 142.11585348 37.7956886 140.4866241 34.6640625 138.1796875 C21.1507515 128.86260256 11.19315093 125.96859069 -4.82568359 127.16552734 C-16.23307693 127.98044718 -25.02530766 125.30298402 -33.94921875 118.0234375 C-44.44396538 108.44845518 -47.66646635 96.85444354 -50.6875 83.4375 C-50.8632959 82.82962646 -51.0390918 82.22175293 -51.22021484 81.59545898 C-55.54691713 61.61441328 -51.79363385 36.72534985 -40.6875 19.4375 C-30.41953666 5.4278212 -17.0674568 0.14137654 0 0 Z " fill="#5382A3" transform="translate(376.6875,248.5625)"/>
<path d="M0 0 C8.91 0 17.82 0 27 0 C30.37551213 9.00136568 30.37551213 9.00136568 31.65405273 12.92456055 C31.94122665 13.8029509 32.22840057 14.68134125 32.52427673 15.58634949 C32.97438866 16.97253227 32.97438866 16.97253227 33.43359375 18.38671875 C33.91240746 19.85501884 33.91240746 19.85501884 34.40089417 21.35298157 C35.0732037 23.41595356 35.7446519 25.47920644 36.4152832 27.54272461 C37.42899991 30.66135009 38.44572021 33.77898387 39.46289062 36.89648438 C42.44681049 46.05439173 45.4080427 55.21458853 48.21020508 64.42993164 C49.28702078 67.93399311 50.44756487 71.40346547 51.625 74.875 C53.21267932 79.5571371 54.67287451 84.23939388 56 89 C58.13292518 85.80061223 59.25017616 82.66775655 60.44262695 79.05688477 C60.79677673 78.00249458 60.79677673 78.00249458 61.15808105 76.92680359 C61.67019998 75.4002263 62.18026938 73.87296027 62.68853188 72.34509468 C63.49660695 69.91638292 64.3102181 67.48958908 65.12528992 65.06321716 C66.85930809 59.89796203 68.58638492 54.73040066 70.3125 49.5625 C72.30362385 43.60125755 74.29767509 37.64102607 76.29894066 31.68317986 C77.09392261 29.31165534 77.883665 26.93843045 78.673172 24.56507874 C81.46825182 16.21161616 84.49590595 8.0887475 88 0 C95.92 0 103.84 0 112 0 C113.44880653 12.41834171 113.44880653 12.41834171 114.14453125 18.53125 C114.66928954 23.13726401 115.20810132 27.74112664 115.76171875 32.34375 C119.35755932 63.04104771 121.60217566 94.08831627 121 125 C114.4 125 107.8 125 101 125 C100.94392578 121.85404297 100.94392578 121.85404297 100.88671875 118.64453125 C100.27064775 88.27361302 98.01689944 58.11598241 94 28 C92.79039414 31.74923608 91.58196367 35.49884898 90.37451172 39.2487793 C89.76718832 41.13414093 89.1589974 43.01922305 88.55078125 44.90429688 C86.29846508 51.90124629 84.09350812 58.91003135 81.94238281 65.9387207 C80.49610313 70.63688158 78.99816477 75.31818213 77.5 80 C72.74132017 94.93266939 68.27165075 109.92107284 64 125 C58.39 125 52.78 125 47 125 C45.52119794 120.75524242 44.045088 116.50970787 42.57495117 112.26196289 C42.07702942 110.82559495 41.5777407 109.38969995 41.0769043 107.9543457 C38.13327313 99.51475061 35.38352289 91.05728651 32.91087341 82.46763611 C30.4845528 74.10329544 27.6723541 65.87102268 24.875 57.625 C18.39865572 38.52951278 18.39865572 38.52951278 16 29 C13.8562078 33.28758439 14.35628228 38.84732439 14.0625 43.5625 C14.02086731 44.21251984 13.97923462 44.86253967 13.93634033 45.53225708 C12.55040083 67.33248973 11.82556366 89.17297597 11 111 C8.37564239 108.50972651 7.1967042 106.49652755 5.9140625 103.08984375 C5.35682495 101.6203125 5.35682495 101.6203125 4.78833008 100.12109375 C3.19542886 95.76192652 1.62130905 91.39693549 0.08056641 87.01904297 C-0.8209385 84.50028797 -1.77893952 82.01946979 -2.76953125 79.53515625 C-11.44947081 56.05941493 -3.09013868 24.24108787 0 0 Z " fill="#FEA704" transform="translate(12,250)"/>
<path d="M0 0 C6.71303375 5.0613207 10.29680807 11.62449339 12.22265625 19.67578125 C12.57199219 20.94808594 12.92132813 22.22039062 13.28125 23.53125 C14.72547054 30.12275115 14.51257295 36.77229703 14.47265625 43.48828125 C14.48425781 45.4228418 14.48425781 45.4228418 14.49609375 47.39648438 C14.46531945 62.60668111 12.95535184 77.09106702 2.515625 88.80078125 C-3.89252683 94.04083726 -10.85499405 94.44039392 -18.81640625 94.15234375 C-25.95020433 93.29403668 -31.16863142 90.06262631 -35.65234375 84.48828125 C-45.94393505 67.83263173 -46.4553701 42.04464653 -42.52734375 23.3046875 C-39.80424788 13.75966915 -36.18006939 5.09491738 -27.78515625 -0.69921875 C-19.02585985 -5.31950696 -8.50979911 -4.91216046 0 0 Z " fill="#F0F1F1" transform="translate(389.77734375,267.32421875)"/>
<path d="M0 0 C1.7890625 2.1328125 1.7890625 2.1328125 3 4 C1.68 6.97 0.36 9.94 -1 13 C-4.50593514 12.57070182 -7.75249452 12.08064088 -11.1171875 10.984375 C-15.73301037 9.63817017 -20.28362627 9.63209558 -25.0625 9.625 C-25.93455078 9.60050781 -26.80660156 9.57601563 -27.70507812 9.55078125 C-33.32778562 9.52524284 -36.55165371 10.23918791 -41 14 C-44.42917072 17.69989473 -45.29969749 20.5792349 -45.5 25.5 C-45.27741241 30.49135806 -44.49089343 33.25367534 -41 37 C-34.7432706 42.53958479 -28.16190923 46.07065734 -20.5625 49.4375 C-7.57298755 55.4413496 3.30883018 62.21197206 9.9375 75.5 C12.88925239 85.22341963 9.88040249 93.95227672 6 103 C0.35121122 112.88187616 -8.4104705 118.308302 -19.21875 121.30078125 C-37.32929041 124.64973449 -52.3727038 120.45435176 -68 111 C-66.77472971 106.94718288 -65.30119506 103.55639236 -63 100 C-62.44054687 100.18175781 -61.88109375 100.36351562 -61.3046875 100.55078125 C-41.57376455 106.95563813 -41.57376455 106.95563813 -21.5 104.625 C-16.72994837 101.77509627 -14.68735885 97.12399798 -13 92 C-12.00720642 87.52429123 -12.73905632 83.92840298 -14.9375 79.9375 C-20.79437304 71.65099007 -29.70019535 67.4185931 -38.3984375 62.69848633 C-44.05211899 59.60441711 -49.19133523 56.32262768 -54 52 C-54.63035156 51.46117187 -55.26070312 50.92234375 -55.91015625 50.3671875 C-62.43068075 44.41426704 -66.12524769 38.0496995 -66.54077148 29.09521484 C-66.64160363 19.37227681 -64.69634224 10.83917153 -57.8828125 3.59765625 C-42.53633174 -9.42456497 -17.26211012 -9.53466732 0 0 Z " fill="#5382A3" transform="translate(306,255)"/>
<path d="M0 0 C6.6 0 13.2 0 20 0 C23.50259373 8.31765361 26.22152868 16.80312633 28.8125 25.4375 C29.02832733 26.15167084 29.24415466 26.86584167 29.46652222 27.60165405 C33.70258715 41.63785336 37.47075268 55.76907099 41 70 C41.33310232 71.33339106 41.66634736 72.66674653 42 74 C49.38354676 50.85314507 55.12263238 28.24393114 58.59863281 4.1887207 C59 2 59 2 60 0 C66.6 0 73.2 0 80 0 C77.98637228 17.28363797 73.82384097 33.47041744 68.25 49.9375 C67.9857724 50.72370728 67.7215448 51.50991455 67.4493103 52.31994629 C63.57054111 63.83158487 59.57281146 75.17987865 54 86 C53.48904785 87.00933594 53.48904785 87.00933594 52.96777344 88.0390625 C46.55229173 100.55364599 38.49945963 114.77628632 26 122 C24.96875 122.61875 23.9375 123.2375 22.875 123.875 C16.00057384 126.52995079 6.94226415 126.05191706 0.125 123.5 C-0.90625 123.005 -1.9375 122.51 -3 122 C-3 118.37 -3 114.74 -3 111 C-1.49759766 111.05220703 -1.49759766 111.05220703 0.03515625 111.10546875 C9.97153197 111.55738355 9.97153197 111.55738355 19 108 C23.44895188 103.55104812 25.88129665 99.3902902 26.10400391 93.02954102 C25.44509542 84.96906376 23.79609797 77.6423778 21.375 69.9375 C20.83975708 68.18203857 20.83975708 68.18203857 20.29370117 66.39111328 C17.86269597 58.50744149 15.22772456 50.70774356 12.43945312 42.9440918 C10.09986886 36.40737404 8.10412577 29.80714836 6.19921875 23.1328125 C4.75360913 18.08223653 3.15141794 13.08120389 1.52294922 8.08691406 C0.61893892 5.26033142 0 2.9901187 0 0 Z " fill="#FEA704" transform="translate(145,283)"/>
<path d="M0 0 C6.60153655 2.61980748 15.65986716 6.40986716 20.75 11.5 C22.72619538 11.75351502 24.70631993 11.97644645 26.6875 12.1875 C46.36908868 14.9477228 62.83507749 23.54690541 77.75 36.5 C78.54535156 37.17417969 79.34070313 37.84835938 80.16015625 38.54296875 C98.94703362 54.88844526 110.62006856 73.70343358 120.55224609 96.38525391 C123.18930325 102.35878913 126.01573113 108.22332554 128.9375 114.0625 C129.34137939 114.87090332 129.74525879 115.67930664 130.16137695 116.51220703 C130.9495197 118.07431207 131.74712617 119.63168266 132.5546875 121.18383789 C133.37367038 122.7707845 134.16410846 124.37269586 134.9296875 125.98608398 C136.91984368 129.97645984 138.05700813 132.09142005 141.9765625 134.40234375 C143.09804688 134.74394531 144.21953125 135.08554688 145.375 135.4375 C151.67096597 137.44731065 151.67096597 137.44731065 154.75 139.5 C155.48046875 141.6640625 155.48046875 141.6640625 155.9375 144.125 C156.09605469 144.94226563 156.25460937 145.75953125 156.41796875 146.6015625 C156.52753906 147.22804687 156.63710938 147.85453125 156.75 148.5 C152.15888418 147.72123085 147.84038412 146.35424515 143.4375 144.875 C142.71626953 144.65199219 141.99503906 144.42898437 141.25195312 144.19921875 C134.42910483 141.88618139 128.98014982 138.31620768 125.28588867 131.99462891 C123.91257528 129.07385846 122.69002716 126.12502535 121.5 123.125 C120.56350057 120.88911174 119.62328078 118.65477876 118.6796875 116.421875 C118.20112305 115.27912109 117.72255859 114.13636719 117.22949219 112.95898438 C109.14694515 94.06236285 100.32481802 75.11496408 86.75 59.5 C86.02941406 58.65824219 85.30882812 57.81648438 84.56640625 56.94921875 C77.21173892 48.54934739 69.25452412 41.72112806 60.1875 35.25 C59.12499023 34.48840576 59.12499023 34.48840576 58.04101562 33.71142578 C47.63145462 26.41556803 37.59948909 23.24145857 25 21.5625 C17.04642374 20.39118948 11.91220818 17.26337216 5.25 12.9375 C-0.9438804 8.94531706 -6.62298168 5.75590065 -14.25 6.5 C-15.55262165 7.58932567 -15.55262165 7.58932567 -15.5 10.23828125 C-15.21403834 13.9691873 -14.33307416 15.61403567 -12.25 18.6875 C-11.610625 19.65042969 -10.97125 20.61335938 -10.3125 21.60546875 C-9.00802326 23.43618326 -7.65829031 25.23617007 -6.25 26.98828125 C-0.08210425 34.73429096 2.83036001 42.95976046 5.97265625 52.22314453 C10.09250529 64.43971534 10.09250529 64.43971534 17.14453125 75.125 C19.87560487 78.49558121 20.75 79.87492193 20.75 84.375 C19.99985502 88.09687319 18.79034921 91.67146063 17.46875 95.2265625 C13.61048633 107.43041825 13.58109879 127.18843964 18.8203125 138.890625 C21.14138528 142.94885287 23.39907045 145.51100364 27.75 147.5 C27.72679687 146.88253906 27.70359375 146.26507813 27.6796875 145.62890625 C27.4243254 133.6451277 30.5538667 124.09484441 37.75 114.5 C38.41 114.5 39.07 114.5 39.75 114.5 C40.47703125 116.31371094 40.47703125 116.31371094 41.21875 118.1640625 C49.30918357 138.05151507 60.11617691 154.97184575 73.75 171.5 C73.09 171.83 72.43 172.16 71.75 172.5 C58.88243601 164.1825632 45.64282722 150.21792768 41.00390625 135.0625 C40.92011719 134.546875 40.83632813 134.03125 40.75 133.5 C40.09 133.5 39.43 133.5 38.75 133.5 C38.64042969 134.35722656 38.53085937 135.21445313 38.41796875 136.09765625 C36.75480769 148.09134615 36.75480769 148.09134615 33.75 153.5 C29.94593784 156.03604144 28.26491096 156.10198813 23.75 155.5 C16.70723542 151.8945934 13.48058845 144.54988291 10.75 137.5 C5.00187969 119.08872744 7.77826135 101.41521596 13.75 83.5 C12.7152522 81.71684305 12.7152522 81.71684305 11.1328125 79.9453125 C7.53723045 75.39423204 5.07318383 70.61452615 2.625 65.375 C2.18760498 64.45356201 1.75020996 63.53212402 1.29956055 62.58276367 C-1.61771451 56.28371433 -3.57309338 50.22188051 -5.27734375 43.5 C-6.92213915 38.42689613 -9.96781197 34.63410404 -13.25 30.5 C-14.69668215 28.56934642 -16.13413079 26.63174121 -17.5625 24.6875 C-18.21863281 23.81480469 -18.87476563 22.94210938 -19.55078125 22.04296875 C-23.1072667 16.72050431 -23.64709323 12.75421838 -23.25 6.5 C-22.38724018 3.39406464 -21.18176269 2.43858642 -18.75 0.25 C-12.42997274 -2.91001363 -6.59359038 -2.17520508 0 0 Z " fill="#5684A4" transform="translate(347.25,41.5)"/>
<path d="M0 0 C6.6 0 13.2 0 20 0 C20 36.3 20 72.6 20 110 C28.91 110 37.82 110 47 110 C44 119 44 119 41 125 C27.47 125 13.94 125 0 125 C0 83.75 0 42.5 0 0 Z " fill="#5383A3" transform="translate(443,250)"/>
<path d="M0 0 C0.99 8.58 1.98 17.16 3 26 C-6.43421888 22.22631245 -12.74424352 15.14987643 -17 6 C-15.75443908 5.18071114 -14.50333365 4.36984814 -13.25 3.5625 C-12.20585937 2.88380859 -12.20585937 2.88380859 -11.140625 2.19140625 C-7.2026568 -0.00034612 -4.61488961 0 0 0 Z " fill="#608CAA" transform="translate(509,210)"/>
<path d="M0 0 C3.45669582 -0.31424507 5.39901677 -0.37956836 8.375 1.5 C10.73613198 5.13251074 10.2854378 7.71843297 10 12 C9.01 12.33 8.02 12.66 7 13 C5.82786955 11.21190303 4.66244474 9.41940875 3.5 7.625 C2.8503125 6.62726563 2.200625 5.62953125 1.53125 4.6015625 C0 2 0 2 0 0 Z " fill="#5986A6" transform="translate(369,77)"/>
</svg>
