<?xml version="1.0" encoding="UTF-8"?>
<svg version="1.1" xmlns="http://www.w3.org/2000/svg" width="512" height="512">
<path d="M0 0 C2.12718999 1.25851282 4.25480903 2.51630067 6.3828125 3.7734375 C7.47368164 4.42022461 8.56455078 5.06701172 9.68847656 5.73339844 C15.06106553 8.90371708 20.4678959 12.01403541 25.875 15.125 C28.05993529 16.38404612 30.24483093 17.64316103 32.4296875 18.90234375 C33.51475586 19.52737793 34.59982422 20.15241211 35.71777344 20.79638672 C41.14659942 23.92430148 46.57319281 27.05608448 52 30.1875 C54.16665583 31.43751879 56.3333225 32.68751878 58.5 33.9375 C71.5 41.4375 84.5 48.9375 97.5 56.4375 C98.57354736 57.05681396 99.64709473 57.67612793 100.75317383 58.31420898 C102.90940213 59.55826792 105.06549049 60.80256942 107.22143555 62.04711914 C112.7966549 65.26506777 118.37453192 68.47829159 123.95703125 71.68359375 C129.40545773 74.81286157 134.84472943 77.95748989 140.27783203 81.11328125 C142.61400958 82.4642833 144.95894549 83.79765684 147.30859375 85.125 C153.81051969 88.90364481 160.00171682 92.8396165 162.55037212 100.29813862 C163.205819 103.78123993 163.14801848 107.24554468 163.14717102 110.7766571 C163.15084771 111.59860229 163.1545244 112.42054747 163.1583125 113.26740009 C163.16933799 116.02552239 163.17319126 118.78360701 163.17700195 121.54174805 C163.18326746 123.51785908 163.18991433 125.49396894 163.19691467 127.47007751 C163.21794692 133.96311626 163.22831619 140.45615522 163.23828125 146.94921875 C163.2423291 149.18525518 163.24644603 151.42129148 163.25063133 153.65732765 C163.26968105 164.16252054 163.28391263 174.66770641 163.2922433 185.17291325 C163.3020157 197.29572423 163.32833634 209.41835261 163.36874419 221.54109925 C163.39891201 230.91364372 163.41371281 240.28613587 163.41702431 249.65872794 C163.419374 255.25543908 163.42832417 260.8519551 163.45348549 266.44861412 C163.47678274 271.71570874 163.48099267 276.98248 163.47072411 282.24961281 C163.47022904 284.17930299 163.47654072 286.10900918 163.49028015 288.03865051 C163.63007608 308.84173714 163.63007608 308.84173714 156.484375 316.3203125 C151.6954784 319.82678923 146.40867943 322.64738825 141.25 325.5625 C139.49993101 326.56155513 137.74986705 327.56061921 136.00012207 328.5602417 C134.19183576 329.59238121 132.38215381 330.62203968 130.57226562 331.65136719 C125.033438 334.80447465 119.51800789 337.99815027 114 341.1875 C111.83605708 342.43640513 109.67199418 343.6851024 107.5078125 344.93359375 C106.43563477 345.55218262 105.36345703 346.17077148 104.25878906 346.80810547 C100.98300434 348.69730166 97.70644107 350.58514109 94.4296875 352.47265625 C83.97793801 358.49497329 73.53700452 364.53419337 63.125 370.625 C53.85839326 376.04472847 44.54903194 381.38664781 35.22161865 386.70068359 C26.86909548 391.46024443 18.54665015 396.26850509 10.25 401.125 C3.43209788 405.11032481 -3.38616979 409.09413854 -10.25 413 C-11.20664551 413.55095337 -11.20664551 413.55095337 -12.18261719 414.11303711 C-17.7565542 417.26201945 -22.57193976 418.47798996 -29 417.6875 C-36.75965657 415.3240004 -43.64546378 411.20408525 -50.5625 407.0625 C-52.67564362 405.80836183 -54.78892577 404.55445703 -56.90234375 403.30078125 C-57.93343262 402.6867041 -58.96452148 402.07262695 -60.02685547 401.43994141 C-62.7106369 399.85805743 -65.41105715 398.31533043 -68.12890625 396.79296875 C-68.89581787 396.35871582 -69.66272949 395.92446289 -70.45288086 395.47705078 C-71.84515077 394.69054425 -73.24270937 393.91328462 -74.64672852 393.14794922 C-80.25457588 389.94284487 -84.33566841 385.85742634 -87.3515625 380.11328125 C-88.97955098 374.02303519 -89.04542614 367.12157153 -86.4375 361.3125 C-83.45221702 356.24912251 -79.35276888 352.78879607 -74.0625 350.3125 C-60.14546941 347.47228968 -49.42513389 355.52234354 -38.01171875 362.57397461 C-36.32412167 363.61229443 -34.62312101 364.62872913 -32.921875 365.64453125 C-31.92768555 366.25272705 -30.93349609 366.86092285 -29.90917969 367.48754883 C-26.3566065 368.95288092 -24.65980314 368.75240781 -21 367.6875 C-18.48719339 366.55874816 -18.48719339 366.55874816 -16.078125 365.0546875 C-15.14887207 364.50369385 -14.21961914 363.9527002 -13.26220703 363.38500977 C-12.26817871 362.78358154 -11.27415039 362.18215332 -10.25 361.5625 C-8.08639879 360.27656731 -5.92231998 358.9914379 -3.7578125 357.70703125 C-2.64180664 357.0413916 -1.52580078 356.37575195 -0.37597656 355.68994141 C5.01253101 352.49377861 10.44352595 349.37239786 15.875 346.25 C18.05998436 344.99103904 20.24487972 343.73192362 22.4296875 342.47265625 C23.51475586 341.84762207 24.59982422 341.22258789 25.71777344 340.57861328 C31.14659942 337.45069852 36.57319281 334.31891552 42 331.1875 C44.16665583 329.93748121 46.3333225 328.68748122 48.5 327.4375 C49.5725 326.81875 50.645 326.2 51.75 325.5625 C61.5 319.9375 61.5 319.9375 64.75390625 318.06030273 C66.9076172 316.81773981 69.06126367 315.57506511 71.21484375 314.33227539 C76.23684262 311.43435377 81.25942807 308.53746651 86.28442383 305.64474487 C88.05045522 304.62802802 89.81627431 303.61094342 91.58203125 302.59375 C93.78734155 301.32349127 95.99304216 300.05390982 98.19921875 298.78515625 C103.86414009 295.52111706 109.48323534 292.20321108 115.0390625 288.75610352 C117 287.6875 117 287.6875 119 287.6875 C119 232.2475 119 176.8075 119 119.6875 C117.35 119.0275 115.7 118.3675 114 117.6875 C112.42626722 116.8669454 110.86798545 116.01625569 109.32421875 115.140625 C108.42662842 114.63289551 107.52903809 114.12516602 106.60424805 113.60205078 C105.64172119 113.05274902 104.67919434 112.50344727 103.6875 111.9375 C102.67276611 111.36112793 101.65803223 110.78475586 100.61254883 110.19091797 C91.4219122 104.95709599 82.28811786 99.62725958 73.16015625 94.28515625 C63.56057762 88.67071325 53.91864049 83.1294968 44.28222656 77.57861328 C38.8534006 74.45069853 33.42679331 71.31893954 28 68.1875 C21.92283836 64.68105517 15.84559527 61.17475299 9.76715088 57.67053223 C8.01658759 56.66130896 6.26609589 55.65196164 4.515625 54.64257812 C2.33607835 53.3858234 0.15640168 52.12929414 -2.0234375 50.87304688 C-3.02375 50.29619141 -4.0240625 49.71933594 -5.0546875 49.125 C-6.03147461 48.56683594 -7.00826172 48.00867188 -8.01464844 47.43359375 C-10.10233708 46.2125315 -12.1666931 44.95108928 -14.21191406 43.66015625 C-15.25831055 43.00917969 -16.30470703 42.35820313 -17.3828125 41.6875 C-18.31754395 41.089375 -19.25227539 40.49125 -20.21533203 39.875 C-23.69643436 38.39051098 -25.3936601 38.64818322 -29 39.6875 C-31.51280661 40.81625184 -31.51280661 40.81625184 -33.921875 42.3203125 C-34.85112793 42.87130615 -35.78038086 43.4222998 -36.73779297 43.98999023 C-37.73182129 44.59141846 -38.72584961 45.19284668 -39.75 45.8125 C-41.91360121 47.09843269 -44.07768002 48.3835621 -46.2421875 49.66796875 C-47.35819336 50.3336084 -48.47419922 50.99924805 -49.62402344 51.68505859 C-55.01253101 54.88122139 -60.44352595 58.00260214 -65.875 61.125 C-68.05998436 62.38396096 -70.24487972 63.64307638 -72.4296875 64.90234375 C-73.51475586 65.52737793 -74.59982422 66.15241211 -75.71777344 66.79638672 C-81.14659942 69.92430148 -86.57319281 73.05608448 -92 76.1875 C-94.16665583 77.43751879 -96.3333225 78.68751878 -98.5 79.9375 C-99.5725 80.55625 -100.645 81.175 -101.75 81.8125 C-111.5 87.4375 -111.5 87.4375 -114.75390625 89.31469727 C-116.9076172 90.55726019 -119.06126367 91.79993489 -121.21484375 93.04272461 C-126.23684262 95.94064623 -131.25942807 98.83753349 -136.28442383 101.73025513 C-138.05045522 102.74697198 -139.81627431 103.76405658 -141.58203125 104.78125 C-143.78734155 106.05150873 -145.99304216 107.32109018 -148.19921875 108.58984375 C-153.86414009 111.85388294 -159.48323534 115.17178892 -165.0390625 118.61889648 C-167 119.6875 -167 119.6875 -169 119.6875 C-169 175.4575 -169 231.2275 -169 288.6875 C-167.35 289.3475 -165.7 290.0075 -164 290.6875 C-161.98825487 292.04134636 -160.01179835 293.44831629 -158.0625 294.890625 C-156.90895826 295.71551164 -155.75396056 296.53836533 -154.59765625 297.359375 C-152.79774815 298.64117963 -151.00871716 299.93095426 -149.24169922 301.2578125 C-143.04195816 305.89157701 -138.10394112 309.53329688 -129.9765625 308.36328125 C-124.42420599 307.04681126 -119.20117191 305.00694153 -114 302.6875 C-113.01 302.3575 -112.02 302.0275 -111 301.6875 C-111.00276538 300.83935478 -111.00553076 299.99120956 -111.00837994 299.11736298 C-111.07466801 278.46855064 -111.12429435 257.81975668 -111.15543652 237.17086029 C-111.17089739 227.18515702 -111.19197205 217.19952483 -111.22631836 207.21386719 C-111.25624453 198.50913714 -111.27558067 189.80445858 -111.28226548 181.09967852 C-111.28617228 176.49167538 -111.29533762 171.88381953 -111.31719017 167.27586365 C-111.33760615 162.93552145 -111.34382348 158.59538672 -111.33932304 154.25500107 C-111.34014596 152.66514329 -111.34608114 151.07527833 -111.35761642 149.48546219 C-111.42099349 140.29727079 -111.31662993 132.89934704 -106.25 124.9375 C-101.34291777 120.03041777 -96.09369169 117.89374611 -89.25 117.4375 C-82.59425365 117.53665451 -76.71844869 119.96905131 -72 124.6875 C-67.86742381 130.66298179 -66.87681714 135.3798223 -66.85955811 142.54162598 C-66.85658698 143.23078079 -66.85361586 143.9199356 -66.8505547 144.62997389 C-66.84188448 146.93887512 -66.84036085 149.2477244 -66.83886719 151.55664062 C-66.83423763 153.21261709 -66.82921279 154.86859249 -66.82382202 156.52456665 C-66.8107047 161.02499159 -66.80425375 165.5254016 -66.79981136 170.02584267 C-66.79687808 172.8407931 -66.79277267 175.65573948 -66.78830719 178.47068787 C-66.77463076 187.28704958 -66.7649662 196.103402 -66.7611053 204.91977358 C-66.7566314 215.07912321 -66.73911523 225.23833783 -66.7101047 235.39764643 C-66.68843652 243.26027273 -66.6783982 251.1228612 -66.67706418 258.98551702 C-66.67601934 263.67629533 -66.67018084 268.36694676 -66.65224457 273.05769348 C-66.63567607 277.47690793 -66.63365066 281.89590137 -66.64238358 286.31513596 C-66.64314942 287.92911245 -66.63887164 289.54310125 -66.62892532 291.15704727 C-66.53277175 307.74476592 -69.33443505 321.2327174 -80.91796875 333.75 C-95.6079245 347.42020272 -116.42858308 352.56913332 -136 353.6875 C-136.81855469 353.75195312 -137.63710937 353.81640625 -138.48046875 353.8828125 C-149.68936609 354.40415656 -157.62701199 348.86323787 -166.53125 342.73828125 C-171.85159746 339.07992999 -177.27257494 335.57860587 -182.6875 332.0625 C-184.66814021 330.76979392 -186.64861379 329.47683249 -188.62890625 328.18359375 C-191.7310849 326.15987109 -194.83905353 324.1471889 -197.96484375 322.16015625 C-205.4383187 317.34720143 -210.602229 313.5994299 -213 304.6875 C-213.18497322 301.87197199 -213.27461815 299.1576585 -213.26069641 296.34437561 C-213.26452196 295.51931045 -213.26834751 294.69424528 -213.27228898 293.84417814 C-213.28258385 291.08754104 -213.27863353 288.33111359 -213.2746582 285.57446289 C-213.2790066 283.59481107 -213.28419018 281.61516094 -213.29014587 279.63551331 C-213.30353285 274.26365011 -213.30411491 268.89185729 -213.30158257 263.51998067 C-213.30051273 259.03431616 -213.30539653 254.54866589 -213.310188 250.06300443 C-213.32128198 239.48055007 -213.32172108 228.8981312 -213.31567383 218.31567383 C-213.3096322 207.40023419 -213.32195014 196.4849234 -213.3432439 185.56950575 C-213.36085842 176.19524694 -213.36686152 166.82102915 -213.36360615 157.4467544 C-213.36179304 151.84906571 -213.36443245 146.25146894 -213.37832069 140.65379524 C-213.39089205 135.3899905 -213.38896139 130.1263867 -213.37590981 124.86258507 C-213.37354304 122.93206337 -213.37628229 121.00152755 -213.38453293 119.07102203 C-213.39499349 116.43298429 -213.38690535 113.79562164 -213.3742218 111.15760803 C-213.38159609 110.39611908 -213.38897037 109.63463014 -213.39656812 108.85006577 C-213.32859018 102.11614401 -211.37371159 96.38600401 -206.79052734 91.23779297 C-202.48229251 87.50759237 -197.2860037 84.97963657 -192.3125 82.25 C-191.05474791 81.54765281 -189.79776073 80.84393424 -188.54150391 80.13891602 C-185.9583406 78.69005712 -183.37245571 77.24624526 -180.78466797 75.80566406 C-175.11270079 72.6403759 -169.49495092 69.3814644 -163.875 66.125 C-161.72669563 64.88388411 -159.57825802 63.64299882 -157.4296875 62.40234375 C-156.36975586 61.78987793 -155.30982422 61.17741211 -154.21777344 60.54638672 C-148.81329351 57.42425393 -143.40649893 54.30613474 -138 51.1875 C-136.92878906 50.56939453 -135.85757813 49.95128906 -134.75390625 49.31445312 C-129.31353925 46.17527626 -123.87237045 43.03750371 -118.4296875 39.90234375 C-107.97793728 33.88002629 -97.53706147 27.84071004 -87.125 21.75 C-74.92674561 14.61703611 -62.66363175 7.59926022 -50.37792969 0.61816406 C-47.97588002 -0.75473336 -45.58143558 -2.13713829 -43.19238281 -3.53222656 C-42.56119537 -3.89869293 -41.93000793 -4.2651593 -41.2796936 -4.64273071 C-39.51220933 -5.66954445 -37.7474763 -6.70108971 -35.98291016 -7.73291016 C-23.04712353 -14.5830116 -11.20192667 -6.72096808 0 0 Z " fill="#B000FF" transform="translate(281,52.3125)"/>
<path d="M0 0 C9.15874636 8.77217589 15.49344543 20.03012401 16.14624023 32.81835938 C16.26544539 38.94084898 16.02304677 44.21795018 12.11328125 49.20703125 C11.62214844 49.71621094 11.13101563 50.22539062 10.625 50.75 C10.14417969 51.24886719 9.66335938 51.74773437 9.16796875 52.26171875 C4.39644261 56.65555153 -0.71513423 58.26861632 -7.1640625 58.05859375 C-13.32049529 57.19930366 -18.69593134 54.98082548 -22.875 50.3125 C-25.33990058 47.04442956 -27.13733321 43.98498189 -27.578125 39.83984375 C-28.07566586 36.33741795 -28.52160243 34.40192367 -31.41015625 32.1953125 C-40.35583769 27.52198896 -49.27079318 26.37872252 -59.25 26.4375 C-60.21945557 26.44168945 -61.18891113 26.44587891 -62.18774414 26.45019531 C-71.56837335 26.59855556 -82.32692271 27.70192271 -89.375 34.75 C-89.87570321 38.12357334 -89.87570321 38.12357334 -89.375 41.75 C-82.98425201 48.99284772 -71.69162117 51.78337317 -62.6875 54.125 C-60.47609905 54.72616234 -58.26517133 55.32906783 -56.0546875 55.93359375 C-54.94319336 56.23507324 -53.83169922 56.53655273 -52.68652344 56.84716797 C-28.16927588 63.53138955 -5.79638022 70.20590562 8.625 92.75 C15.58739435 105.50306867 17.56336356 118.91724668 15.0078125 133.19921875 C10.92975023 147.00327909 0.50031909 158.20624598 -11.97290039 165.01855469 C-35.97883841 177.38148266 -67.3676223 178.6959294 -92.9765625 170.61328125 C-96.18075013 169.4457784 -99.27392872 168.16690534 -102.375 166.75 C-103.18324219 166.38132812 -103.99148438 166.01265625 -104.82421875 165.6328125 C-111.230662 162.39045902 -116.28191031 157.7561769 -121.375 152.75 C-121.96539062 152.1725 -122.55578125 151.595 -123.1640625 151 C-130.99312518 142.64899981 -134.97971169 130.60910636 -134.68359375 119.26953125 C-133.81628657 112.18835238 -130.65900311 107.33110248 -125.15625 102.94140625 C-118.91204151 98.76490715 -112.74499635 98.94945168 -105.375 99.75 C-100.02121501 101.68400295 -95.09577638 105.70763451 -92.375 110.75 C-91.82583922 112.61119516 -91.32909875 114.48835766 -90.875 116.375 C-90.01471557 119.88267906 -89.60083004 121.49190852 -87.1875 124.25 C-72.54422921 132.05974442 -54.21562516 132.62609297 -38.4375 127.86328125 C-34.34332194 126.15961834 -31.23332412 124.22969893 -28.375 120.75 C-28.74625 119.698125 -29.1175 118.64625 -29.5 117.5625 C-29.81324219 116.67498047 -29.81324219 116.67498047 -30.1328125 115.76953125 C-34.00103697 109.48062543 -39.98525773 107.45273935 -46.6875 105.375 C-47.59395264 105.08246338 -48.50040527 104.78992676 -49.43432617 104.48852539 C-56.63383263 102.20146528 -63.9035378 100.18539309 -71.1875 98.1875 C-92.96428323 92.19987868 -116.68380775 84.51268839 -128.5546875 63.6796875 C-134.73090974 51.82314407 -136.47040999 38.05744991 -133.1875 25 C-128.19588728 9.28907149 -118.19717194 -1.68259852 -103.75 -9.375 C-72.83775796 -24.19115616 -26.86856857 -22.75686338 0 0 Z " fill="#AD00FF" transform="translate(368.375,188.25)"/>
</svg>
