<?xml version="1.0" encoding="UTF-8"?>
<svg version="1.1" xmlns="http://www.w3.org/2000/svg" width="512" height="512">
<path d="M0 0 C15.48614282 11.5701067 25.01959887 26.11982634 33.71875 43.03125 C34.04472168 43.66256836 34.37069336 44.29388672 34.70654297 44.94433594 C42.90732144 61.06567408 48.87421447 78.37673818 52.71875 96.03125 C53.84667969 95.71671875 54.97460938 95.4021875 56.13671875 95.078125 C90.88567394 85.55320153 132.8656302 77.40615616 166.3828125 95.015625 C178.67189216 102.44087688 186.73309412 113.4270008 190.3046875 127.30859375 C194.83337033 157.08681952 179.67938096 185.3691931 162.609375 208.62109375 C154.03225733 220.07738472 144.5003217 230.60098768 134.71875 241.03125 C136.11588612 244.22570695 137.74407898 246.22059812 140.28125 248.59375 C145.20536137 253.40272927 149.43728502 258.65161705 153.71875 264.03125 C154.58227114 265.08160332 155.44688435 266.13105963 156.3125 267.1796875 C176.38143782 291.747588 193.27112166 321.36374462 190.71875 354.03125 C188.42266575 367.06083651 181.57372894 378.40691955 170.71875 386.03125 C135.06780912 407.77832393 89.72358186 396.93081522 51.71875 388.03125 C51.58533203 389.07837158 51.45191406 390.12549316 51.31445312 391.2043457 C46.58076547 421.61440879 27.08415372 462.26845234 1.88916016 480.79833984 C-11.61666213 490.26149565 -26.08827214 493.47550566 -42.40771484 490.66503906 C-61.64968118 485.9489189 -76.13484991 469.33903697 -86.265625 453.19140625 C-98.00471291 433.60457737 -106.52169758 412.08721043 -112.28125 390.03125 C-113.32539063 390.27359375 -114.36953125 390.5159375 -115.4453125 390.765625 C-151.56112293 399.03851998 -195.08239086 408.71502175 -229.2421875 389.05859375 C-240.68187725 381.42723259 -247.8267023 370.47558663 -250.91503906 357.09814453 C-255.68384007 330.18303167 -241.74325405 303.48453169 -226.93945312 282.09228516 C-224.19758592 278.28472304 -221.27619277 274.64389971 -218.28125 271.03125 C-217.61029297 270.21817383 -217.61029297 270.21817383 -216.92578125 269.38867188 C-209.40952978 260.30390294 -201.76018975 251.23667556 -193.28125 243.03125 C-194.74705378 239.60080869 -196.642557 237.51749472 -199.34375 234.96875 C-203.58445075 230.82304095 -207.34428334 226.45556059 -211.04296875 221.82421875 C-212.47734581 220.03437652 -213.93642734 218.26389294 -215.42578125 216.51953125 C-230.08279703 199.2744298 -242.86740639 178.84952149 -249.28125 157.03125 C-249.52488281 156.22300781 -249.76851562 155.41476563 -250.01953125 154.58203125 C-253.72281556 139.74370162 -251.87043373 123.79438537 -244.71484375 110.375 C-236.81552867 97.46058842 -223.39276057 90.00593105 -209.03125 86.28125 C-177.63126816 78.82158581 -143.70960233 85.74995858 -113.28125 94.03125 C-112.98057617 93.1019165 -112.67990234 92.17258301 -112.37011719 91.21508789 C-107.26648959 75.52529152 -102.17434949 59.90467312 -94.96875 45.03125 C-94.50243164 44.06840088 -94.03611328 43.10555176 -93.55566406 42.11352539 C-83.36278422 21.76901064 -68.55261301 1.37486313 -46.84375 -7.40625 C-30.67346866 -12.27630866 -13.81909982 -9.37157344 0 0 Z M-57.84375 32.40625 C-70.6131371 49.15802335 -88.81836525 79.46219252 -88.22607422 101.04150391 C-86.68617831 104.28443715 -84.09263619 104.66221811 -80.80859375 105.87890625 C-80.14193695 106.13235306 -79.47528015 106.38579987 -78.78842163 106.64692688 C-76.60333166 107.47593962 -74.41121494 108.28446861 -72.21875 109.09375 C-69.19646329 110.23297734 -66.17932997 111.3853021 -63.1640625 112.54296875 C-62.40895889 112.83206116 -61.65385529 113.12115356 -60.87586975 113.41900635 C-52.94481215 116.48896888 -45.27759693 120.06569528 -37.66967773 123.86743164 C-36.77450439 124.30047607 -35.87933105 124.73352051 -34.95703125 125.1796875 C-33.8110144 125.75468994 -33.8110144 125.75468994 -32.6418457 126.34130859 C-27.19485558 127.9333237 -22.36806767 125.37862309 -17.43359375 123.15234375 C-16.78777847 122.86425339 -16.1419632 122.57616302 -15.47657776 122.27934265 C-14.099063 121.66477849 -12.72278212 121.04744227 -11.34765625 120.42755127 C1.84097857 114.48775011 15.11625797 108.96368517 28.71875 104.03125 C24.38264512 79.33271694 13.51564592 52.63323764 -2.28125 33.03125 C-3.00828125 32.1134375 -3.7353125 31.195625 -4.484375 30.25 C-11.04349318 22.45244692 -19.22608325 16.11978605 -29.59375 14.71875 C-41.50368616 16.1036263 -50.53546292 23.26604994 -57.84375 32.40625 Z M-221.65625 121.46875 C-227.12436374 130.09154474 -227.63887248 137.85909597 -225.4375 147.8671875 C-218.38731866 173.45298256 -201.58814013 195.28797001 -183.7421875 214.38671875 C-180.82223943 217.52450421 -178.0393926 220.75129664 -175.28125 224.03125 C-171.01039924 223.52997644 -168.91317146 221.06431377 -165.90625 218.15625 C-161.62035505 214.10526206 -157.2359093 210.29279631 -152.59375 206.65625 C-152.02358154 206.18743408 -151.45341309 205.71861816 -150.8659668 205.2355957 C-147.63638449 202.63235126 -144.55234017 200.6137477 -140.7890625 198.85546875 C-135.00717191 195.8627361 -129.79842359 192.62826677 -127.65435791 186.1317749 C-125.20192624 176.23483675 -124.67885075 165.88591621 -123.93356323 155.74943542 C-123.30249407 147.40184721 -121.98813603 139.25725197 -120.46875 131.03125 C-120.24864258 129.8040625 -120.02853516 128.576875 -119.80175781 127.3125 C-119.30400923 124.55027774 -118.79785046 121.78999612 -118.28125 119.03125 C-125.98266848 116.23530025 -133.75901293 114.53028375 -141.78125 112.90625 C-143.04839844 112.64199219 -144.31554687 112.37773438 -145.62109375 112.10546875 C-169.25192348 107.2612716 -203.14020488 102.46544053 -221.65625 121.46875 Z M58.71875 120.03125 C59.555283 128.591771 60.99269184 137.03127559 62.44235229 145.50689697 C63.69247415 152.84390493 64.80400117 160.09166429 65.29296875 167.52734375 C65.63668227 179.02878692 65.63668227 179.02878692 70.078125 189.25390625 C73.16846167 191.57165876 76.28787768 193.26324088 79.71875 195.03125 C82.09322458 196.70134476 84.33948969 198.51592007 86.59375 200.34375 C87.17302246 200.80023926 87.75229492 201.25672852 88.34912109 201.72705078 C94.40241803 206.50263335 100.23577324 211.53144278 106.05419922 216.58837891 C108.931261 219.08228256 111.82547738 221.55619025 114.71875 224.03125 C117.73051659 222.5947978 119.57235088 221.35245727 121.71875 218.78125 C122.62173828 217.71003906 122.62173828 217.71003906 123.54296875 216.6171875 C124.26097656 215.76382813 124.97898437 214.91046875 125.71875 214.03125 C126.6398825 212.97997584 127.56320865 211.93062123 128.48828125 210.8828125 C141.78115731 195.75374831 154.35261795 178.93404474 161.71875 160.03125 C162.110625 159.02835938 162.5025 158.02546875 162.90625 156.9921875 C166.11266498 147.84054473 168.22698363 136.78239636 164.21875 127.53125 C158.79515472 118.77737692 149.96236865 114.18221848 140.21875 111.84375 C113.41892706 106.63139201 84.54092133 112.34481491 58.71875 120.03125 Z M-95.28125 127.03125 C-96.14223253 131.90480802 -96.99651111 136.77947714 -97.84472656 141.65527344 C-98.13392284 143.31216754 -98.42491579 144.96874913 -98.71777344 146.625 C-99.13955241 149.0122116 -99.55475623 151.40049003 -99.96875 153.7890625 C-100.09999268 154.52367706 -100.23123535 155.25829163 -100.36645508 156.01516724 C-101.06182275 160.06885526 -101.41699075 163.91943639 -101.28125 168.03125 C-97.88003122 166.75761484 -94.89360289 165.29290277 -91.83203125 163.34375 C-90.57169067 162.54940552 -90.57169067 162.54940552 -89.28588867 161.73901367 C-87.95328003 160.89367065 -87.95328003 160.89367065 -86.59375 160.03125 C-77.00417786 154.01239762 -67.23785239 148.41681149 -57.28125 143.03125 C-57.28125 142.37125 -57.28125 141.71125 -57.28125 141.03125 C-75.7112279 131.58828164 -75.7112279 131.58828164 -95.28125 127.03125 Z M33.71875 128.03125 C17.11791201 134.27803262 17.11791201 134.27803262 0.71875 141.03125 C0.71875 141.69125 0.71875 142.35125 0.71875 143.03125 C1.26587646 143.33716064 1.81300293 143.64307129 2.37670898 143.95825195 C12.98431829 149.90724115 23.45872345 155.94900056 33.56225586 162.7277832 C36.85416268 165.17940273 36.85416268 165.17940273 40.71875 166.03125 C40.39197543 157.51877254 39.20620667 149.23262884 37.78125 140.84375 C37.61141602 139.81564209 37.44158203 138.78753418 37.26660156 137.72827148 C37.09741211 136.76219971 36.92822266 135.79612793 36.75390625 134.80078125 C36.52779663 133.49524292 36.52779663 133.49524292 36.29711914 132.16333008 C35.85568155 129.83663711 35.85568155 129.83663711 33.71875 128.03125 Z M-34.31640625 157.875 C-35.50979614 158.49556274 -35.50979614 158.49556274 -36.72729492 159.12866211 C-37.5907251 159.59151611 -38.45415527 160.05437012 -39.34375 160.53125 C-40.25552002 161.01537354 -41.16729004 161.49949707 -42.10668945 161.99829102 C-60.72040453 172.00548043 -78.99217807 182.86830607 -96.28125 195.03125 C-97.01553223 195.52334961 -97.74981445 196.01544922 -98.50634766 196.52246094 C-99.23257324 197.0280957 -99.95879883 197.53373047 -100.70703125 198.0546875 C-101.36743408 198.50505371 -102.02783691 198.95541992 -102.70825195 199.41943359 C-105.78778317 202.57496132 -105.42406338 207.04714502 -105.59765625 211.25 C-105.63971191 212.25361572 -105.68176758 213.25723145 -105.72509766 214.29125977 C-105.76425293 215.36045654 -105.8034082 216.42965332 -105.84375 217.53125 C-105.8854834 218.6462085 -105.9272168 219.76116699 -105.97021484 220.90991211 C-106.48255413 235.59941123 -106.42215165 250.21953786 -105.84375 264.90625 C-105.80459473 265.91115479 -105.76543945 266.91605957 -105.72509766 267.95141602 C-105.60599267 270.64725024 -105.4496372 273.33811893 -105.28125 276.03125 C-105.1884375 277.96871094 -105.1884375 277.96871094 -105.09375 279.9453125 C-103.98675516 284.14976407 -102.31550275 285.14207128 -98.71875 287.53125 C-97.8069397 288.14456177 -97.8069397 288.14456177 -96.87670898 288.77026367 C-94.69576099 290.21937126 -92.49085613 291.62624341 -90.28125 293.03125 C-88.97269043 293.87550537 -88.97269043 293.87550537 -87.63769531 294.73681641 C-73.95320746 303.54753952 -59.99074993 311.80058227 -45.74121094 319.66113281 C-43.53234356 320.89139916 -41.34518345 322.15109935 -39.1640625 323.4296875 C-38.02710938 324.08195313 -36.89015625 324.73421875 -35.71875 325.40625 C-34.78933594 325.95023438 -33.85992187 326.49421875 -32.90234375 327.0546875 C-28.74526134 328.60352595 -25.47173573 327.56781579 -21.50244141 325.77880859 C-20.0819751 324.98724365 -20.0819751 324.98724365 -18.6328125 324.1796875 C-17.01898682 323.28503784 -17.01898682 323.28503784 -15.37255859 322.37231445 C-14.22867676 321.72351318 -13.08479492 321.07471191 -11.90625 320.40625 C-11.31499329 320.07378265 -10.72373657 319.74131531 -10.11456299 319.39877319 C5.91539044 310.38397486 21.59180535 300.77677825 36.65625 290.21875 C37.36668457 289.72093018 38.07711914 289.22311035 38.80908203 288.71020508 C42.29644369 286.36089776 42.29644369 286.36089776 44.71875 283.03125 C44.95929175 280.28459449 45.14063674 277.56100764 45.2734375 274.80859375 C45.31548309 273.96666977 45.35752869 273.12474579 45.40084839 272.25730896 C45.82360598 262.99637155 45.86961224 253.73954991 45.84912109 244.47045898 C45.84376054 241.59939279 45.84910764 238.7284834 45.85546875 235.85742188 C45.860675 231.17012208 45.81005738 226.485388 45.73974609 221.79867554 C45.71856329 219.00663987 45.76314171 216.22053925 45.8125 213.42895508 C46.07488715 204.49215756 46.07488715 204.49215756 43.00634766 196.3659668 C40.60032926 194.33298873 38.29185382 192.98571954 35.46875 191.59375 C34.52797607 191.05266602 33.58720215 190.51158203 32.61791992 189.95410156 C30.65399178 188.82662805 28.6739068 187.72686348 26.67919922 186.65478516 C22.89297228 184.57838658 19.28085129 182.27387518 15.64501953 179.94726562 C6.20420694 173.92969556 -3.50837039 168.41768331 -13.34960938 163.08740234 C-15.14520739 162.10563326 -16.92491828 161.0949595 -18.703125 160.08203125 C-19.67765625 159.52902344 -20.6521875 158.97601563 -21.65625 158.40625 C-22.46835937 157.93960938 -23.28046875 157.47296875 -24.1171875 156.9921875 C-28.01020926 155.26351719 -30.74931128 156.0109241 -34.31640625 157.875 Z M69.71875 219.03125 C69.71875 234.21125 69.71875 249.39125 69.71875 265.03125 C74.47281421 261.91154415 74.47281421 261.91154415 78.8671875 258.48046875 C79.39417236 258.03227783 79.92115723 257.58408691 80.46411133 257.12231445 C81.00189209 256.65913818 81.53967285 256.19596191 82.09375 255.71875 C82.65666748 255.23817139 83.21958496 254.75759277 83.79956055 254.26245117 C88.13605398 250.55335472 92.4459141 246.81354885 96.71875 243.03125 C92.67903291 233.14635568 79.26536824 225.17331509 70.71875 219.03125 C70.38875 219.03125 70.05875 219.03125 69.71875 219.03125 Z M-155.28125 241.03125 C-153.76443506 244.84471128 -151.53671974 246.70377097 -148.34375 249.21875 C-147.36792969 249.99476563 -146.39210938 250.77078125 -145.38671875 251.5703125 C-144.36191406 252.38242187 -143.33710938 253.19453125 -142.28125 254.03125 C-141.23339113 254.89044881 -140.18779944 255.75242031 -139.14453125 256.6171875 C-135.0969203 260.69732032 -135.0969203 260.69732032 -130.28125 263.03125 C-130.28125 249.17125 -130.28125 235.31125 -130.28125 221.03125 C-136.83145066 221.03125 -150.26230128 236.69210125 -155.28125 241.03125 Z M-174.28125 259.03125 C-179.53732118 264.16445198 -184.56937839 269.39334582 -189.28125 275.03125 C-189.70390137 275.53479004 -190.12655273 276.03833008 -190.56201172 276.55712891 C-207.82918128 297.25008567 -228.31141035 323.64591717 -226.28125 352.03125 C-225.12876634 357.48512937 -222.63142582 362.44818108 -218.28125 366.03125 C-194.93886459 380.94849318 -163.74294905 375.74370368 -138.18554688 370.12963867 C-131.49593609 368.60738107 -124.8623248 366.97159407 -118.28125 365.03125 C-118.39734619 364.2769873 -118.51344238 363.52272461 -118.63305664 362.74560547 C-118.98353201 360.46811951 -119.33385945 358.19061078 -119.68408203 355.91308594 C-120.07779881 353.35376588 -120.47199352 350.79451929 -120.86669922 348.23535156 C-121.2729797 345.59734751 -121.67754986 342.95913084 -122.08007812 340.32055664 C-122.51413431 337.47717714 -122.95846326 334.63561621 -123.40820312 331.79467773 C-124.43352973 325.2385738 -125.37134233 318.7481444 -125.81640625 312.12109375 C-126.13287044 301.72825812 -126.13287044 301.72825812 -130.79296875 292.86328125 C-133.43939133 290.62009079 -136.34131389 288.91440875 -139.35302734 287.20947266 C-142.93061326 285.0234218 -146.06825668 282.27466265 -149.28125 279.59375 C-150.62979177 278.49297905 -151.97874772 277.39271532 -153.328125 276.29296875 C-157.63111122 272.75596465 -161.88982384 269.16760609 -166.12109375 265.54516602 C-168.77639831 263.2762222 -171.45794933 261.0882262 -174.28125 259.03125 Z M110.28125 263.96875 C104.92667041 268.87966443 99.37956288 273.47940558 93.71875 278.03125 C92.5038178 279.01551583 91.2889788 279.99989671 90.07421875 280.984375 C88.78934871 282.02118811 87.5041946 283.0576493 86.21875 284.09375 C85.63843018 284.56401611 85.05811035 285.03428223 84.46020508 285.51879883 C83.58271606 286.2229895 83.58271606 286.2229895 82.6875 286.94140625 C82.07914307 287.44317383 81.47078613 287.94494141 80.84399414 288.46191406 C78.71875 290.03125 78.71875 290.03125 75.90405273 291.54589844 C70.42528976 294.69918257 70.42528976 294.69918257 66.97564697 299.84268188 C65.55889537 305.181741 65.21135512 310.66799765 64.78125 316.15625 C64.61017535 317.86962781 64.43346819 319.5824523 64.2512207 321.29467773 C63.98045804 323.84290118 63.71281973 326.39086494 63.463974 328.94132996 C62.71058071 336.61945094 61.39874685 344.13544955 59.88500977 351.69775391 C59.12686428 355.5427761 58.50440646 359.08574117 58.71875 363.03125 C69.42813845 366.91780271 80.55620241 368.89171309 91.71875 371.03125 C92.42306152 371.16982422 93.12737305 371.30839844 93.85302734 371.45117188 C112.34314225 374.97309852 138.12362352 376.81818911 154.75 366.55078125 C159.7785439 362.66962336 163.8071483 358.15016199 165.71875 352.03125 C168.64367903 326.75370547 153.06145605 304.05653392 138.3359375 284.9375 C134.00867161 279.56988099 129.44692073 274.42497356 124.796875 269.3359375 C122.90141732 267.23383218 121.08518451 265.08673394 119.28125 262.90625 C118.0128125 261.483125 118.0128125 261.483125 116.71875 260.03125 C113.63607427 260.03125 112.49680353 261.8949919 110.28125 263.96875 Z M-101.28125 315.03125 C-100.33530535 325.11302852 -99.03473646 335.06631166 -97.21875 345.03125 C-97.0444043 345.99240723 -96.87005859 346.95356445 -96.69042969 347.94384766 C-95.91451793 352.6250789 -95.91451793 352.6250789 -94.28125 357.03125 C-85.96475241 354.78702043 -78.10421814 351.64122072 -70.15625 348.34375 C-68.9012203 347.82703987 -67.64601298 347.31076093 -66.390625 346.79492188 C-63.35240023 345.54457553 -60.3160262 344.28993796 -57.28125 343.03125 C-57.28125 342.37125 -57.28125 341.71125 -57.28125 341.03125 C-57.87848877 340.7002832 -58.47572754 340.36931641 -59.09106445 340.02832031 C-72.20709893 332.7398231 -85.08669966 325.20905728 -97.67504883 317.04003906 C-99.3140997 315.9744103 -99.3140997 315.9744103 -101.28125 315.03125 Z M32.46875 321.78125 C24.6646044 326.91022168 16.65416782 331.59495604 8.50097656 336.14550781 C7.21852051 336.86432129 7.21852051 336.86432129 5.91015625 337.59765625 C5.14904541 338.01990479 4.38793457 338.44215332 3.60375977 338.87719727 C1.57718637 340.01691263 1.57718637 340.01691263 -0.28125 342.03125 C16.64950105 350.7691943 16.64950105 350.7691943 34.71875 355.03125 C37.43560857 342.3965388 39.53728477 329.90300272 40.71875 317.03125 C38.0922754 317.03125 34.69703907 320.30345328 32.46875 321.78125 Z M-40.03125 361.21875 C-49.78714815 366.05743993 -59.76900678 370.14107308 -69.90625 374.09375 C-71.01583069 374.52716202 -71.01583069 374.52716202 -72.14782715 374.96932983 C-84.218273 379.67692433 -84.218273 379.67692433 -88.28125 381.03125 C-86.40685841 389.17608827 -84.06283247 396.97057516 -81.09375 404.78125 C-80.70010254 405.8218457 -80.30645508 406.86244141 -79.90087891 407.93457031 C-76.55612349 416.61510283 -72.72301233 424.86502857 -68.28125 433.03125 C-67.73082031 434.0934375 -67.18039063 435.155625 -66.61328125 436.25 C-62.24538412 444.30104079 -56.70126898 450.59212382 -50.28125 457.03125 C-49.353125 457.99417969 -49.353125 457.99417969 -48.40625 458.9765625 C-43.35830558 463.80608625 -36.86820283 466.65649895 -29.890625 467.2265625 C-19.97530086 466.63719009 -11.8427452 459.99310762 -5.28125 453.03125 C11.76830914 432.71807887 22.85721804 405.71484434 28.71875 380.03125 C28.14769531 379.8034082 27.57664062 379.57556641 26.98828125 379.34082031 C19.89103715 376.50587185 12.80103911 373.65336056 5.71875 370.78125 C4.53845215 370.30324951 3.3581543 369.82524902 2.14208984 369.33276367 C-5.59699946 366.17950876 -13.26586127 362.90955551 -20.8125 359.31738281 C-28.87240407 355.58375078 -32.56132878 357.38815121 -40.03125 361.21875 Z " fill="#175ECA" transform="translate(286.28125,14.96875)"/>
<path d="M0 0 C10.60572509 8.19839384 18.59551102 19.3780018 20.4609375 32.90234375 C21.92968815 49.82561518 18.67378544 63.86991046 7.58203125 77.15234375 C-1.54051856 86.88306355 -13.08486515 92.03934522 -26.34765625 93.25 C-42.6330464 93.63338175 -56.28159498 88.85099928 -68.1796875 77.578125 C-78.05120838 66.38277434 -82.21166189 53.17392069 -81.8203125 38.3515625 C-80.69133924 24.50595985 -74.82778306 12.30257376 -64.5390625 2.90234375 C-45.32291296 -11.64661505 -20.3161618 -14.09024125 0 0 Z " fill="#1765CF" transform="translate(286.5390625,214.09765625)"/>
</svg>
